<?xml version="1.0" encoding="iso-8859-1"?>
<!-- Uploaded to: SVG Repo, www.svgrepo.com, Generator: SVG Repo Mixer Tools -->
<svg version="1.1" id="Layer_1" xmlns="http://www.w3.org/2000/svg" xmlns:xlink="http://www.w3.org/1999/xlink" 
	 viewBox="0 0 512 512" xml:space="preserve">
<polygon style="fill:#25BBCC;" points="103.489,193.362 92.596,346.78 133.447,332.255 133.447,193.362 "/>
<polygon style="fill:#78E3EC;" points="103.489,193.362 73.532,193.362 73.532,332.255 103.489,346.78 "/>
<polygon style="fill:#FF0F47;" points="103.489,471.149 133.447,471.149 133.447,332.255 103.489,332.255 92.596,401.702 "/>
<rect x="73.532" y="332.255" style="fill:#FF6176;" width="29.957" height="138.894"/>
<polygon style="fill:#25BBCC;" points="473.872,54.468 462.979,284.596 503.83,262.809 503.83,54.468 "/>
<polygon style="fill:#78E3EC;" points="473.872,54.468 443.915,54.468 443.915,262.809 473.872,284.596 "/>
<polygon style="fill:#FF0F47;" points="473.872,471.149 503.83,471.149 503.83,262.809 473.872,262.809 462.979,366.979 "/>
<rect x="443.915" y="262.809" style="fill:#FF6176;" width="29.957" height="208.34"/>
<polygon style="fill:#25BBCC;" points="381.277,193.362 370.383,346.78 411.234,332.255 411.234,193.362 "/>
<polygon style="fill:#78E3EC;" points="381.277,193.362 351.319,193.362 351.319,332.255 381.277,346.78 "/>
<polygon style="fill:#FF0F47;" points="381.277,471.149 411.234,471.149 411.234,332.255 381.277,332.255 370.383,401.702 "/>
<rect x="351.319" y="332.255" style="fill:#FF6176;" width="29.957" height="138.894"/>
<polygon style="fill:#25BBCC;" points="288.681,100.766 277.787,305.324 318.638,285.957 318.638,100.766 "/>
<polygon style="fill:#78E3EC;" points="288.681,100.766 258.723,100.766 258.723,285.957 288.681,305.324 "/>
<polygon style="fill:#FF0F47;" points="288.681,471.149 318.638,471.149 318.638,285.957 288.681,285.957 277.787,378.553 "/>
<rect x="258.723" y="285.957" style="fill:#FF6176;" width="29.957" height="185.191"/>
<polygon style="fill:#25BBCC;" points="196.085,147.064 185.191,326.052 226.043,309.106 226.043,147.064 "/>
<polygon style="fill:#78E3EC;" points="196.085,147.064 166.128,147.064 166.128,309.106 196.085,326.052 "/>
<polygon style="fill:#FF0F47;" points="196.085,471.149 226.043,471.149 226.043,309.106 196.085,309.106 185.191,390.128 "/>
<rect x="166.128" y="309.106" style="fill:#FF6176;" width="29.957" height="162.043"/>
<g>
	<circle style="fill:#367596;" cx="133.447" cy="503.83" r="8.17"/>
	<circle style="fill:#367596;" cx="40.851" cy="503.83" r="8.17"/>
	<circle style="fill:#367596;" cx="503.83" cy="503.83" r="8.17"/>
	<circle style="fill:#367596;" cx="226.043" cy="503.83" r="8.17"/>
	<circle style="fill:#367596;" cx="318.638" cy="503.83" r="8.17"/>
	<circle style="fill:#367596;" cx="411.234" cy="503.83" r="8.17"/>
</g>
<path style="fill:#2F5E88;" d="M503.83,479.319H40.851c-4.512,0-8.17-3.657-8.17-8.17V8.17c0-4.513,3.658-8.17,8.17-8.17
	s8.17,3.657,8.17,8.17v454.808H503.83c4.512,0,8.17,3.657,8.17,8.17C512,475.662,508.342,479.319,503.83,479.319z"/>
<g>
	<circle style="fill:#367596;" cx="8.17" cy="100.766" r="8.17"/>
	<circle style="fill:#367596;" cx="8.17" cy="8.17" r="8.17"/>
	<circle style="fill:#367596;" cx="8.17" cy="471.149" r="8.17"/>
	<circle style="fill:#367596;" cx="8.17" cy="193.362" r="8.17"/>
	<circle style="fill:#367596;" cx="8.17" cy="285.957" r="8.17"/>
	<circle style="fill:#367596;" cx="8.17" cy="378.553" r="8.17"/>
</g>
</svg>