<?xml version="1.0" encoding="iso-8859-1"?>
<!-- Uploaded to: SVG Repo, www.svgrepo.com, Generator: SVG Repo Mixer Tools -->
<svg height="800px" width="800px" version="1.1" id="Layer_1" xmlns="http://www.w3.org/2000/svg" xmlns:xlink="http://www.w3.org/1999/xlink" 
	 viewBox="0 0 512 512" xml:space="preserve">
<g transform="translate(1 1)">
	<g>
		<polygon style="fill:#00DA6C;" points="66.148,196.246 317.951,196.246 317.951,129.098 66.148,129.098 		"/>
		<polygon style="fill:#00DA6C;" points="66.148,397.689 368.311,397.689 368.311,330.541 66.148,330.541 		"/>
	</g>
	<g>
		<polygon style="fill:#FFE100;" points="66.148,95.525 401.885,95.525 401.885,28.377 66.148,28.377 		"/>
		<polygon style="fill:#FFE100;" points="66.148,296.967 485.82,296.967 485.82,229.82 66.148,229.82 		"/>
	</g>
	<g>
		<polygon style="fill:#00DA6C;" points="40.967,196.246 292.77,196.246 292.77,129.098 40.967,129.098 		"/>
		<polygon style="fill:#00DA6C;" points="40.967,397.689 343.131,397.689 343.131,330.541 40.967,330.541 		"/>
	</g>
	<g>
		<polygon style="fill:#FFE100;" points="40.967,95.525 376.705,95.525 376.705,28.377 40.967,28.377 		"/>
		<polygon style="fill:#FFE100;" points="40.967,296.967 460.639,296.967 460.639,229.82 40.967,229.82 		"/>
	</g>
	<g>
		<polygon style="fill:#00AD55;" points="292.77,196.246 317.951,196.246 317.951,129.098 292.77,129.098 		"/>
		<polygon style="fill:#00AD55;" points="343.131,397.689 368.311,397.689 368.311,330.541 343.131,330.541 		"/>
	</g>
	<g>
		<polygon style="fill:#FFA800;" points="376.705,95.525 401.885,95.525 401.885,28.377 376.705,28.377 		"/>
		<polygon style="fill:#FFA800;" points="460.639,296.967 485.82,296.967 485.82,229.82 460.639,229.82 		"/>
	</g>
	<g>
		<path style="fill:#FFE100;" d="M32.574,506.803c-5.036,0-8.393-3.357-8.393-8.393V19.984c0-5.036,3.357-8.393,8.393-8.393
			s8.393,3.357,8.393,8.393V498.41C40.967,503.446,37.61,506.803,32.574,506.803z"/>
		<path style="fill:#FFE100;" d="M502.607,498.41H15.787c-5.036,0-8.393-3.357-8.393-8.393c0-5.036,3.357-8.393,8.393-8.393h486.82
			c5.036,0,8.393,3.357,8.393,8.393C511,495.052,507.643,498.41,502.607,498.41z"/>
		<path style="fill:#FFE100;" d="M376.705,456.443c-5.036,0-8.393-3.357-8.393-8.393v-16.787c0-5.036,3.357-8.393,8.393-8.393
			s8.393,3.357,8.393,8.393v16.787C385.098,453.085,381.741,456.443,376.705,456.443z"/>
		<path style="fill:#FFE100;" d="M343.131,456.443c-5.036,0-8.393-3.357-8.393-8.393v-16.787c0-5.036,3.357-8.393,8.393-8.393
			c5.036,0,8.393,3.357,8.393,8.393v16.787C351.525,453.085,348.167,456.443,343.131,456.443z"/>
		<path style="fill:#FFE100;" d="M309.557,456.443c-5.036,0-8.393-3.357-8.393-8.393v-16.787c0-5.036,3.357-8.393,8.393-8.393
			c5.036,0,8.393,3.357,8.393,8.393v16.787C317.951,453.085,314.593,456.443,309.557,456.443z"/>
		<path style="fill:#FFE100;" d="M275.984,456.443c-5.036,0-8.393-3.357-8.393-8.393v-16.787c0-5.036,3.357-8.393,8.393-8.393
			s8.393,3.357,8.393,8.393v16.787C284.377,453.085,281.02,456.443,275.984,456.443z"/>
		<path style="fill:#FFE100;" d="M242.41,456.443c-5.036,0-8.393-3.357-8.393-8.393v-16.787c0-5.036,3.357-8.393,8.393-8.393
			s8.393,3.357,8.393,8.393v16.787C250.803,453.085,247.446,456.443,242.41,456.443z"/>
		<path style="fill:#FFE100;" d="M208.836,456.443c-5.036,0-8.393-3.357-8.393-8.393v-16.787c0-5.036,3.357-8.393,8.393-8.393
			c5.036,0,8.393,3.357,8.393,8.393v16.787C217.229,453.085,213.872,456.443,208.836,456.443z"/>
		<path style="fill:#FFE100;" d="M175.262,456.443c-5.036,0-8.393-3.357-8.393-8.393v-16.787c0-5.036,3.357-8.393,8.393-8.393
			s8.393,3.357,8.393,8.393v16.787C183.656,453.085,180.298,456.443,175.262,456.443z"/>
		<path style="fill:#FFE100;" d="M141.689,456.443c-5.036,0-8.393-3.357-8.393-8.393v-16.787c0-5.036,3.357-8.393,8.393-8.393
			c5.036,0,8.393,3.357,8.393,8.393v16.787C150.082,453.085,146.725,456.443,141.689,456.443z"/>
		<path style="fill:#FFE100;" d="M108.115,456.443c-5.036,0-8.393-3.357-8.393-8.393v-16.787c0-5.036,3.357-8.393,8.393-8.393
			c5.036,0,8.393,3.357,8.393,8.393v16.787C116.508,453.085,113.151,456.443,108.115,456.443z"/>
		<path style="fill:#FFE100;" d="M74.541,456.443c-5.036,0-8.393-3.357-8.393-8.393v-16.787c0-5.036,3.357-8.393,8.393-8.393
			c5.036,0,8.393,3.357,8.393,8.393v16.787C82.934,453.085,79.577,456.443,74.541,456.443z"/>
	</g>
	<path d="M24.18,506.803c-5.036,0-8.393-3.357-8.393-8.393V11.59c0-5.036,3.357-8.393,8.393-8.393s8.393,3.357,8.393,8.393v486.82
		C32.574,503.446,29.216,506.803,24.18,506.803z"/>
	<path d="M494.213,490.016H7.393c-5.036,0-8.393-3.357-8.393-8.393s3.357-8.393,8.393-8.393h486.82c5.036,0,8.393,3.357,8.393,8.393
		S499.249,490.016,494.213,490.016z"/>
	<path d="M368.311,456.443c-5.036,0-8.393-3.357-8.393-8.393v-16.787c0-5.036,3.357-8.393,8.393-8.393
		c5.036,0,8.393,3.357,8.393,8.393v16.787C376.705,453.085,373.348,456.443,368.311,456.443z"/>
	<path d="M334.738,456.443c-5.036,0-8.393-3.357-8.393-8.393v-16.787c0-5.036,3.357-8.393,8.393-8.393
		c5.036,0,8.393,3.357,8.393,8.393v16.787C343.131,453.085,339.774,456.443,334.738,456.443z"/>
	<path d="M301.164,456.443c-5.036,0-8.393-3.357-8.393-8.393v-16.787c0-5.036,3.357-8.393,8.393-8.393
		c5.036,0,8.393,3.357,8.393,8.393v16.787C309.557,453.085,306.2,456.443,301.164,456.443z"/>
	<path d="M267.59,456.443c-5.036,0-8.393-3.357-8.393-8.393v-16.787c0-5.036,3.357-8.393,8.393-8.393s8.393,3.357,8.393,8.393
		v16.787C275.984,453.085,272.626,456.443,267.59,456.443z"/>
	<path d="M234.016,456.443c-5.036,0-8.393-3.357-8.393-8.393v-16.787c0-5.036,3.357-8.393,8.393-8.393
		c5.036,0,8.393,3.357,8.393,8.393v16.787C242.41,453.085,239.052,456.443,234.016,456.443z"/>
	<path d="M200.443,456.443c-5.036,0-8.393-3.357-8.393-8.393v-16.787c0-5.036,3.357-8.393,8.393-8.393s8.393,3.357,8.393,8.393
		v16.787C208.836,453.085,205.479,456.443,200.443,456.443z"/>
	<path d="M166.869,456.443c-5.036,0-8.393-3.357-8.393-8.393v-16.787c0-5.036,3.357-8.393,8.393-8.393
		c5.036,0,8.393,3.357,8.393,8.393v16.787C175.262,453.085,171.905,456.443,166.869,456.443z"/>
	<path d="M133.295,456.443c-5.036,0-8.393-3.357-8.393-8.393v-16.787c0-5.036,3.357-8.393,8.393-8.393s8.393,3.357,8.393,8.393
		v16.787C141.689,453.085,138.331,456.443,133.295,456.443z"/>
	<path d="M99.721,456.443c-5.036,0-8.393-3.357-8.393-8.393v-16.787c0-5.036,3.357-8.393,8.393-8.393s8.393,3.357,8.393,8.393
		v16.787C108.115,453.085,104.757,456.443,99.721,456.443z"/>
	<path d="M66.148,456.443c-5.036,0-8.393-3.357-8.393-8.393v-16.787c0-5.036,3.357-8.393,8.393-8.393s8.393,3.357,8.393,8.393
		v16.787C74.541,453.085,71.184,456.443,66.148,456.443z"/>
	<path d="M401.885,103.918H66.148c-5.036,0-8.393-3.357-8.393-8.393V28.377c0-5.036,3.357-8.393,8.393-8.393h335.738
		c5.036,0,8.393,3.357,8.393,8.393v67.148C410.279,100.561,406.921,103.918,401.885,103.918z M74.541,87.131h318.951V36.77H74.541
		V87.131z"/>
	<path d="M317.951,204.639H66.148c-5.036,0-8.393-3.357-8.393-8.393v-67.148c0-5.036,3.357-8.393,8.393-8.393h251.803
		c5.036,0,8.393,3.357,8.393,8.393v67.148C326.344,201.282,322.987,204.639,317.951,204.639z M74.541,187.852h235.016v-50.361
		H74.541V187.852z"/>
	<path d="M485.82,305.361H66.148c-5.036,0-8.393-3.357-8.393-8.393V229.82c0-5.036,3.357-8.393,8.393-8.393H485.82
		c5.036,0,8.393,3.357,8.393,8.393v67.148C494.213,302.003,490.856,305.361,485.82,305.361z M74.541,288.574h402.885v-50.361H74.541
		V288.574z"/>
	<path d="M368.311,406.082H66.148c-5.036,0-8.393-3.357-8.393-8.393v-67.148c0-5.036,3.357-8.393,8.393-8.393h302.164
		c5.036,0,8.393,3.357,8.393,8.393v67.148C376.705,402.725,373.348,406.082,368.311,406.082z M74.541,389.295h285.377v-50.361
		H74.541V389.295z"/>
</g>
</svg>