<?xml version="1.0" ?>
<!-- Uploaded to: SVG Repo, www.svgrepo.com, Generator: SVG Repo Mixer Tools -->
<svg width="800px" height="800px" viewBox="0 0 64 64" id="svg5" version="1.1" xml:space="preserve" xmlns="http://www.w3.org/2000/svg" xmlns:svg="http://www.w3.org/2000/svg">
<defs id="defs2"/>
<g id="layer1" transform="translate(0,-480)">
<path d="m 9.999992,489 h 49 v 6 h -49 z" id="path60988" style="fill:#3e4f59;fill-opacity:1;fill-rule:evenodd;stroke-width:2;stroke-linecap:round;stroke-linejoin:round;stroke-miterlimit:4.1"/>
<path d="m 9.999992,495 h 49 v 40 h -49 z" id="path60990" style="fill:#acbec2;fill-opacity:1;fill-rule:evenodd;stroke-width:2.00001;stroke-linecap:round;stroke-linejoin:round;stroke-miterlimit:4.1"/>
<path d="m 9.999992,495 v 40 h 29.76953 a 28.484051,41.392605 35.599482 0 0 18.625,-40 z" id="path60992" style="fill:#e8edee;fill-opacity:1;fill-rule:evenodd;stroke:none;stroke-width:2.00002;stroke-linecap:round;stroke-linejoin:round;stroke-miterlimit:4.1"/>
<path d="m 11.999992,488 c -1.64501,0 -3,1.355 -3,3 v 40 c 0,0.55229 0.44772,1 1,1 0.55229,0 1,-0.44771 1,-1 v -40 c 0,-0.56413 0.43587,-1 1,-1 h 45 c 0.56413,0 1,0.43587 1,1 v 3 h -42 c -0.55228,0 -1,0.44772 -1,1 0,0.55229 0.44772,1 1,1 h 42 v 37 c 0,0.56413 -0.43587,1 -1,1 h -49 c -0.55228,0 -1,0.44772 -1,1 0,0.55229 0.44772,1 1,1 h 49 c 1.64501,0 3,-1.35499 3,-3 0,-14 0,-28 0,-42 0,-1.645 -1.35499,-3 -3,-3 z" id="path60994" style="color:#000000;fill:#000000;fill-rule:evenodd;stroke-linecap:round;stroke-linejoin:round;stroke-miterlimit:4.1"/>
<path d="m 54.999992,491 c -0.55228,0 -1,0.44772 -1,1 0,0.55229 0.44772,1 1,1 0.55229,0 1,-0.44771 1,-1 0,-0.55228 -0.44771,-1 -1,-1 z" id="path60996" style="color:#000000;fill:#ed7161;fill-opacity:1;fill-rule:evenodd;stroke-linecap:round;stroke-linejoin:round;stroke-miterlimit:4.1;-inkscape-stroke:none"/>
<path d="m 50.999992,491 c -0.55228,0 -1,0.44772 -1,1 0,0.55229 0.44772,1 1,1 0.55229,0 1,-0.44771 1,-1 0,-0.55228 -0.44771,-1 -1,-1 z" id="path60998" style="color:#000000;fill:#ecba16;fill-opacity:1;fill-rule:evenodd;stroke-linecap:round;stroke-linejoin:round;stroke-miterlimit:4.1;-inkscape-stroke:none"/>
<path d="m 46.999992,491 c -0.55228,0 -1,0.44772 -1,1 0,0.55229 0.44772,1 1,1 0.55229,0 1,-0.44771 1,-1 0,-0.55228 -0.44771,-1 -1,-1 z" id="path61000" style="color:#000000;fill:#42b05c;fill-opacity:1;fill-rule:evenodd;stroke-linecap:round;stroke-linejoin:round;stroke-miterlimit:4.1;-inkscape-stroke:none"/>
<path d="m 4.999992,534 a 1,1 0 0 0 -1,1 1,1 0 0 0 1,1 1,1 0 0 0 1,-1 1,1 0 0 0 -1,-1 z" id="path61002" style="color:#000000;fill:#000000;fill-rule:evenodd;stroke-linecap:round;stroke-linejoin:round;stroke-miterlimit:4.1;-inkscape-stroke:none"/>
<path d="m 12.999992,494 c -0.55228,0 -1,0.44772 -1,1 0,0.55229 0.44772,1 1,1 0.55229,0 1,-0.44771 1,-1 0,-0.55228 -0.44771,-1 -1,-1 z" id="path61004" style="color:#000000;fill:#000000;fill-rule:evenodd;stroke-linecap:round;stroke-linejoin:round;stroke-miterlimit:4.1;-inkscape-stroke:none"/>
<path d="m 18,501 a 1,1 0 0 0 -1,1 v 27 a 1.0001,1.0001 0 0 0 1,1 h 33 a 1,1 0 0 0 1,-1 1,1 0 0 0 -1,-1 H 19 v -26 a 1,1 0 0 0 -1,-1 z" id="path6742" style="color:#000000;fill:#000000;fill-rule:evenodd;stroke-linecap:round;stroke-linejoin:round;stroke-miterlimit:4.1;-inkscape-stroke:none"/>
<g id="path33015" transform="translate(0,-1)">
<path d="m 27.015625,523.99997 c 0,0.554 -0.446,1 -1,1 H 24 c -0.554,0 -1,-0.446 -1,-1 V 512 c 0,-0.554 0.446,-1 1,-1 h 2.015625 c 0.554,0 1,0.446 1,1 0,3.99999 0,7.99998 0,11.99997 z" id="path33043" style="color:#000000;fill:#ffa221;fill-opacity:1;fill-rule:evenodd;stroke-width:2;stroke-linecap:round;stroke-linejoin:round;stroke-miterlimit:4.1;-inkscape-stroke:none"/>
<path d="M 23.5,514 A 5.5,7 0 0 0 23,514.043 V 524 c 0,0.554 0.446001,1 1,1 h 2.015625 c 0.553999,0 1,-0.446 1,-1 v -8.38281 A 5.5,7 0 0 0 23.5,514 Z" id="path28527" style="color:#000000;fill:#ffc343;fill-opacity:1;fill-rule:evenodd;stroke-width:2;stroke-linecap:round;stroke-linejoin:round;stroke-miterlimit:4.1;-inkscape-stroke:none"/>
<path d="m 24,510 c -1.090702,0 -2,0.9093 -2,2 v 12 c 0,1.0907 0.909298,2 2,2 h 2.015625 c 1.090702,0 2,-0.9093 2,-2 v -8 a 1,1 0 0 0 -1,-1 1,1 0 0 0 -1,1 v 8 H 24 v -12 h 2.015625 a 1,1 0 0 0 1,1 1,1 0 0 0 1,-1 c 0,-1.0907 -0.909298,-2 -2,-2 z" id="path33045" style="color:#000000;fill:#000000;fill-rule:evenodd;stroke-linecap:round;stroke-linejoin:round;stroke-miterlimit:4.1;-inkscape-stroke:none"/>
</g>
<g id="path33017" transform="translate(0,-1)">
<path d="m 35.015625,523.99997 c 0,0.554 -0.446,1 -1,1 H 32 c -0.554,0 -1,-0.446 -1,-1 V 517 c 0,-0.554 0.446,-1 1,-1 h 2.015625 c 0.554,0 1,0.446 1,1 0,2.33332 0,4.66665 0,6.99997 z" id="path33037" style="color:#000000;fill:#fe73c5;fill-opacity:1;fill-rule:evenodd;stroke-width:2;stroke-linecap:round;stroke-linejoin:round;stroke-miterlimit:4.1"/>
<path d="m 31,518 v 6 c 0,0.554 0.446001,1 1,1 h 2.015625 c 0.553999,0 1,-0.446 1,-1 v -3.78125 A 5.5,7 0 0 0 31,518 Z" id="path28533" style="color:#000000;fill:#fe93d3;fill-opacity:1;fill-rule:evenodd;stroke-width:2;stroke-linecap:round;stroke-linejoin:round;stroke-miterlimit:4.1"/>
<path d="m 32,515 c -1.090702,0 -2,0.9093 -2,2 v 7 c 0,1.0907 0.909298,2 2,2 h 2.015625 c 1.090702,0 2,-0.9093 2,-2 a 1,1 0 0 0 -1,-1 1,1 0 0 0 -1,1 H 32 v -7 h 2.015625 v 3 a 1,1 0 0 0 1,1 1,1 0 0 0 1,-1 v -3 c 0,-1.0907 -0.909298,-2 -2,-2 z" id="path33039" style="color:#000000;fill:#000000;fill-rule:evenodd;stroke-linecap:round;stroke-linejoin:round;stroke-miterlimit:4.1"/>
</g>
<g id="path33019" transform="translate(0,-1)">
<path d="m 43.015625,523.99997 c 0,0.554 -0.446,1 -1,1 H 40 c -0.554,0 -1,-0.446 -1,-1 V 512 c 0,-0.554 0.446,-1 1,-1 h 2.015625 c 0.554,0 1,0.446 1,1 0,3.99999 0,7.99998 0,11.99997 z" id="path33031" style="color:#000000;fill:#ffa221;fill-opacity:1;fill-rule:evenodd;stroke-width:2;stroke-linecap:round;stroke-linejoin:round;stroke-miterlimit:4.1"/>
<path d="m 40,514 a 5.5,7 0 0 0 -1,0.13086 V 524 c 0,0.554 0.446001,1 1,1 h 2.015625 c 0.553999,0 1,-0.446 1,-1 v -8.85156 A 5.5,7 0 0 0 40,514 Z" id="path28529" style="color:#000000;fill:#ffc343;fill-opacity:1;fill-rule:evenodd;stroke-width:2;stroke-linecap:round;stroke-linejoin:round;stroke-miterlimit:4.1"/>
<path d="m 40,510 c -1.090702,0 -2,0.9093 -2,2 v 12 c 0,1.0907 0.909298,2 2,2 h 2.015625 c 1.090702,0 2,-0.9093 2,-2 v -8 a 1,1 0 0 0 -1,-1 1,1 0 0 0 -1,1 v 8 H 40 v -12 h 2.015625 a 1,1 0 0 0 1,1 1,1 0 0 0 1,-1 c 0,-1.0907 -0.909298,-2 -2,-2 z" id="path33033" style="color:#000000;fill:#000000;fill-rule:evenodd;stroke-linecap:round;stroke-linejoin:round;stroke-miterlimit:4.1"/>
</g>
<g id="path33021" transform="translate(0,-1)">
<path d="m 51.015625,523.99997 c 0,0.554 -0.446,1 -1,1 H 48 c -0.554,0 -1,-0.446 -1,-1 V 517 c 0,-0.554 0.446,-1 1,-1 h 2.015625 c 0.554,0 1,0.446 1,1 0,2.33332 0,4.66665 0,6.99997 z" id="path33025" style="color:#000000;fill:#fe73c5;fill-opacity:1;fill-rule:evenodd;stroke-width:2;stroke-linecap:round;stroke-linejoin:round;stroke-miterlimit:4.1"/>
<path d="m 47,519 v 5 c 0,0.554 0.446001,1 1,1 h 2.015625 c 0.553999,0 1,-0.446 1,-1 v -2.78125 A 5.5,7 0 0 0 47,519 Z" id="path28535" style="color:#000000;fill:#fe93d3;fill-opacity:1;fill-rule:evenodd;stroke-width:2;stroke-linecap:round;stroke-linejoin:round;stroke-miterlimit:4.1"/>
<path d="m 48,515 c -1.090702,0 -2,0.9093 -2,2 v 7 c 0,1.0907 0.909298,2 2,2 h 2.015625 c 1.090702,0 2,-0.9093 2,-2 a 1,1 0 0 0 -1,-1 1,1 0 0 0 -1,1 H 48 v -7 h 2.015625 v 3 a 1,1 0 0 0 1,1 1,1 0 0 0 1,-1 v -3 c 0,-1.0907 -0.909298,-2 -2,-2 z" id="path33027" style="color:#000000;fill:#000000;fill-rule:evenodd;stroke-linecap:round;stroke-linejoin:round;stroke-miterlimit:4.1"/>
</g>
<path d="m 25.28125,502.02539 a 1,1 0 0 0 -0.623047,0.44531 1,1 0 0 0 0.316406,1.37696 l 8,5 a 1.0001,1.0001 0 0 0 1.060547,0 l 7.470703,-4.66797 7.46875,4.66797 a 1,1 0 0 0 1.378907,-0.31836 1,1 0 0 0 -0.31836,-1.37696 l -8,-5 a 1.0001,1.0001 0 0 0 -1.060547,0 l -7.46875,4.66797 -7.470703,-4.66797 a 1,1 0 0 0 -0.753906,-0.12695 z" id="path6785-5" style="color:#000000;fill:#000000;fill-rule:evenodd;stroke-linecap:round;stroke-linejoin:round;stroke-miterlimit:4.1;-inkscape-stroke:none"/>
<path d="m 25.5053,501 c -1.092724,0 -2,0.90728 -2,2 0,1.09272 0.907276,2 2,2 1.092724,0 2,-0.90728 2,-2 0,-1.09272 -0.907276,-2 -2,-2 z" id="path6798" style="color:#000000;fill:#0588e2;fill-opacity:1;fill-rule:evenodd;stroke-linecap:round;stroke-linejoin:round;stroke-miterlimit:4.1;-inkscape-stroke:none"/>
<path d="m 33.5053,506 c -1.092724,0 -2,0.90728 -2,2 0,1.09272 0.907276,2 2,2 1.092724,0 2,-0.90728 2,-2 0,-1.09272 -0.907276,-2 -2,-2 z" id="path6804" style="color:#000000;fill:#0588e2;fill-opacity:1;fill-rule:evenodd;stroke-linecap:round;stroke-linejoin:round;stroke-miterlimit:4.1;-inkscape-stroke:none"/>
<path d="m 41.5053,501 c -1.092724,0 -2,0.90728 -2,2 0,1.09272 0.907276,2 2,2 1.092724,0 2,-0.90728 2,-2 0,-1.09272 -0.907276,-2 -2,-2 z" id="path6806" style="color:#000000;fill:#0588e2;fill-opacity:1;fill-rule:evenodd;stroke-linecap:round;stroke-linejoin:round;stroke-miterlimit:4.1;-inkscape-stroke:none"/>
<path d="m 49.5053,506 c -1.092724,0 -2,0.90728 -2,2 0,1.09272 0.907276,2 2,2 1.092724,0 2,-0.90728 2,-2 0,-1.09272 -0.907276,-2 -2,-2 z" id="path6808" style="color:#000000;fill:#0588e2;fill-opacity:1;fill-rule:evenodd;stroke-linecap:round;stroke-linejoin:round;stroke-miterlimit:4.1;-inkscape-stroke:none"/>
</g>
</svg>