<?xml version="1.0" encoding="iso-8859-1"?>
<!-- Uploaded to: SVG Repo, www.svgrepo.com, Generator: SVG Repo Mixer Tools -->
<!DOCTYPE svg PUBLIC "-//W3C//DTD SVG 1.1//EN" "http://www.w3.org/Graphics/SVG/1.1/DTD/svg11.dtd">
<svg fill="#000000" version="1.1" id="Capa_1" xmlns="http://www.w3.org/2000/svg" xmlns:xlink="http://www.w3.org/1999/xlink" 
	 width="800px" height="800px" viewBox="0 0 32.629 32.629"
	 xml:space="preserve">
<g>
	<g>
		<path d="M1.44,21.778c0.261,0,0.523-0.089,0.738-0.271l7.509-6.296l7.51,6.296c0.491,0.41,1.217,0.345,1.625-0.143
			c0.408-0.488,0.345-1.216-0.143-1.625l-8.25-6.917c-0.429-0.359-1.055-0.359-1.483,0l-8.25,6.917
			c-0.486,0.409-0.551,1.137-0.143,1.625C0.782,21.638,1.108,21.778,1.44,21.778z"/>
		<path d="M31.736,8.271c-1.521,2.815-5.035,2.816-3.811,6.711c0.719-2.497,2.287-2.425,3.477-4.407
			c0.107,1.928-0.315,3.686-2.019,5.127C31.956,14.998,33.811,11.819,31.736,8.271z"/>
		<path d="M22.409,9.866c-1.847-2.342-0.729-3.756-1.781-6.191c1.869,1.191,3.224,2.762,3.429,5.313
			c1.062-2.867-0.654-6.724-5.352-7.164C20.312,5.125,17.958,8.401,22.409,9.866z"/>
		<path d="M19.047,17.742c-1.619-0.843-2.273-2.169-2.537-3.727c1.308,1.366,2.547,1.026,3.572,2.89
			c0.271-3.332-2.533-2.696-4.255-4.668C14.812,15.444,16.869,17.646,19.047,17.742z"/>
		<path d="M20.932,11.935c-1.41-0.283-2.199-1.145-2.738-2.266c1.291,0.749,2.154,0.219,3.338,1.406
			c-0.521-2.582-2.508-1.487-4.242-2.604C17.222,11.123,19.262,12.336,20.932,11.935z"/>
		<path d="M24.07,29.896c0.723-1.946,2.226-7.077,2.076-9.874c-0.019-0.368,2.894-4.501,4.002-6.373v-0.854
			c-1.354,1.858-4.223,4.616-4.287,4.113c-0.504-3.819-1.588-7.702-3.399-9.885l-0.877-0.05c1.197,1.467,1.86,3.539,2.14,5.859
			c0.03,0.253-2.408-1.945-3.611-1.945v0.452c1.318,0.019,3.738,2.979,3.746,3.163c0.103,2.329-0.121,4.807-0.537,7.116
			c-0.055,0.303-1.201-3.955-4.766-5.158l-0.351,0.199c3.262,1.557,4.808,6.491,4.754,6.723c-0.267,1.156-1.788,4.666-2.489,6.371
			c-1.613-0.047-3.395-0.074-5.282-0.082v-7.894l-5.501-4.612l-5.499,4.612v8.125C1.602,30.047,0,30.25,0,30.472
			c0,0.444,28.395,0.444,28.395,0C28.393,30.248,26.73,30.043,24.07,29.896z M10.264,22.14h2.258v2.257h-2.258V22.14z
			 M10.264,25.549h2.258v2.258h-2.258V25.549z M6.853,22.14h2.258v2.257H6.853V22.14z M6.853,25.549h2.258v2.258H6.853V25.549z"/>
	</g>
</g>
</svg>