<?xml version="1.0" ?>
<!-- Uploaded to: SVG Repo, www.svgrepo.com, Generator: SVG Repo Mixer Tools -->
<svg width="800px" height="800px" viewBox="0 0 24 24" xmlns="http://www.w3.org/2000/svg">
<defs>
<style>.cls-1,.cls-6{fill:#f7bf75;}.cls-2,.cls-7{fill:#f1734d;}.cls-3{fill:#eae2f9;}.cls-3,.cls-5,.cls-6,.cls-7,.cls-8{fill-rule:evenodd;}.cls-4{fill:#ffeabb;}.cls-5{fill:#f94060;}.cls-8{fill:#d62657;}</style>
</defs>
<g id="Bank">
<path class="cls-1" d="M11.63,2.18a.66.66,0,0,1,.74,0c1.58,1.1,7.78,5.36,7.78,5.36H3.85S10.05,3.28,11.63,2.18Z"/>
<path class="cls-2" d="M12.37,2.18a.66.66,0,0,0-.74,0l-.94.65,7.09,4.89h2.63S14,3.28,12.37,2.18Z"/>
<rect class="cls-2" height="9.52" width="11.63" x="6.15" y="9.84"/>
<path class="cls-3" d="M13.57,15.2V9.84a.5.5,0,0,1,.5-.5.51.51,0,0,1,.5.5v9.53a.51.51,0,0,1-.5.5.5.5,0,0,1-.5-.5V16.2H10.43v3.17a.5.5,0,0,1-1,0V9.84a.5.5,0,0,1,1,0V15.2Z"/>
<rect class="cls-1" height="2.56" rx="0.47" width="18.75" x="2.62" y="19.37"/>
<rect class="cls-4" height="9.52" width="3.63" x="3.85" y="9.84"/>
<rect class="cls-4" height="9.52" width="3.63" x="16.53" y="9.84"/>
<path class="cls-5" d="M21.13,8a.44.44,0,0,0-.44-.45H3.31A.46.46,0,0,0,3,7.67.44.44,0,0,0,2.87,8V9.4A.4.4,0,0,0,3,9.71a.42.42,0,0,0,.31.13H20.69a.44.44,0,0,0,.44-.44Z"/>
<path class="cls-6" d="M18.77,19.37h1.38V9.84H18.77Zm-12.68,0H7.47V9.84H6.09Z"/>
<path class="cls-7" d="M21.38,19.83a.47.47,0,0,0-.47-.46H18.76v2.56h2.15a.47.47,0,0,0,.47-.47Z"/>
<path class="cls-8" d="M21.13,8a.45.45,0,0,0-.44-.45H16.83v2.3h3.86a.44.44,0,0,0,.44-.44Z"/>
<path class="cls-6" d="M16.53,12.73h3.62a.5.5,0,0,0,.5-.5.5.5,0,0,0-.5-.5H16.53a.5.5,0,0,0-.5.5A.5.5,0,0,0,16.53,12.73Z"/>
<path class="cls-6" d="M16.53,15.11h3.62a.5.5,0,0,0,.5-.5.5.5,0,0,0-.5-.5H16.53a.5.5,0,0,0-.5.5A.5.5,0,0,0,16.53,15.11Z"/>
<path class="cls-6" d="M16.53,17.49h3.62a.5.5,0,0,0,.5-.5.5.5,0,0,0-.5-.5H16.53a.5.5,0,0,0-.5.5A.5.5,0,0,0,16.53,17.49Z"/>
<path class="cls-6" d="M3.85,12.73H7.47a.5.5,0,0,0,.5-.5.5.5,0,0,0-.5-.5H3.85a.5.5,0,0,0-.5.5A.5.5,0,0,0,3.85,12.73Z"/>
<path class="cls-6" d="M3.85,15.11H7.47a.5.5,0,0,0,.5-.5.5.5,0,0,0-.5-.5H3.85a.5.5,0,0,0-.5.5A.5.5,0,0,0,3.85,15.11Z"/>
<path class="cls-6" d="M3.85,17.49H7.47A.5.5,0,0,0,8,17a.5.5,0,0,0-.5-.5H3.85a.5.5,0,0,0-.5.5A.5.5,0,0,0,3.85,17.49Z"/>
<path class="cls-5" d="M11.32,6.18h1.36a.5.5,0,0,0,.5-.5.5.5,0,0,0-.5-.5H11.32a.5.5,0,0,0-.5.5A.5.5,0,0,0,11.32,6.18Z"/>
</g>
</svg>