<?xml version="1.0" encoding="iso-8859-1"?>
<!-- Uploaded to: SVG Repo, www.svgrepo.com, Generator: SVG Repo Mixer Tools -->
<svg fill="#000000" height="800px" width="800px" version="1.1" id="Layer_1" xmlns="http://www.w3.org/2000/svg" xmlns:xlink="http://www.w3.org/1999/xlink" 
	 viewBox="0 0 509.397 509.397" xml:space="preserve">
<g transform="translate(1 1)">
	<g>
		<g>
			<path d="M475.42,51.068l-12.149-12.149l-25.166-25.166L425.956,1.603c-3.471-3.471-8.678-3.471-12.149,0s-3.471,8.678,0,12.149
				l6.136,6.136l-30.925,31.556l-18.601-18.601c-3.471-3.471-8.678-3.471-12.149,0l-24.298,24.298
				c-3.471,3.471-3.471,8.678,0,12.149v0l-30.373,30.373c-0.918,0.918-1.586,1.84-2.018,2.886l-87.365,87.365l0,0l-2.603,2.603
				c-10.414,9.546-15.62,22.563-15.62,36.447c0,4.917,0.775,9.721,2.183,14.305l-23.01,23.011c-0.838,0.838-1.469,1.779-1.902,2.77
				l-24.999,24.999c-7.552,7.552-9.104,18.356-4.706,27.269l-86.412,86.412c-3.471,3.471-3.471,7.81,0,11.281
				c1.736,1.736,3.471,2.603,6.075,2.603c2.603,0,4.339-0.868,5.207-2.603l85.626-85.626c4.057,3.11,9.112,4.921,14.171,4.921
				c6.075,0,12.149-2.603,16.488-7.81l26.034-26.034c0.838-0.838,1.469-1.779,1.902-2.77l22.303-22.303
				c4.221,1.089,8.619,1.643,13.109,1.643c13.885,0,26.902-5.207,37.315-15.62l91.986-91.119c0.838-0.838,1.469-1.779,1.902-2.77
				l28.47-28.47c1.736,1.736,3.471,2.603,6.075,2.603s4.339-0.868,6.075-2.603l24.298-24.298c3.471-3.471,3.471-8.678,0-12.149
				l-18.224-18.224l31.241-31.241l6.075,6.075c1.736,1.736,3.471,2.603,6.075,2.603c1.736,0,4.339-0.868,6.075-2.603
				C478.892,59.746,478.892,54.539,475.42,51.068z M346.119,81.441l6.508,6.508l-24.298,24.298l-6.508-6.508L346.119,81.441z
				 M339.176,187.312h-98.061l68.556-68.556l11.135,10.94c0.298,0.42,0.631,0.827,1.014,1.209l24.298,24.298
				c0.821,0.821,1.645,1.441,2.558,1.873l10.456,10.273l0.003,0.003L339.176,187.312z M340.478,124.397l23.864-23.864l12.149,12.149
				l-23.864,23.864L340.478,124.397z M173.427,319.217c-2.603,2.603-6.942,2.603-9.546,0l-3.471-3.471
				c-2.603-1.736-2.603-6.075,0-8.678l19.959-19.959l13.017,12.149L173.427,319.217z M204.668,283.637l-12.149-12.149l13.017-13.017
				c0.868,2.603,2.603,5.207,5.207,6.942c1.284,0.856,2.357,1.712,3.428,2.569c1.069,1.004,2.167,1.96,3.305,2.848L204.668,283.637z
				 M223.759,253.264c-2.756-2.411-4.956-5.374-6.617-8.608c-0.431-0.887-0.835-1.779-1.193-2.673
				c-0.096-0.288-0.221-0.561-0.357-0.828c-1.491-3.963-2.246-8.167-2.246-12.189c0-8.678,3.471-17.356,10.414-24.298
				c9.651,0,98.061,0,98.061,0l-48.597,48.597C259.339,267.149,237.644,267.149,223.759,253.264z M371.285,155.203l-6.508-6.508
				l24.298-24.298l6.508,6.508L371.285,155.203z M413.807,124.831l-61.614-61.614l12.149-12.149l61.614,61.614L413.807,124.831z
				 M413.807,75.366l-12.149-12.149l30.373-30.373l12.149,12.149L413.807,75.366z"/>
			<path d="M68.424,434.634c-3.471-3.471-8.678-3.471-12.149,0L38.919,451.99c-6.075,6.075-9.546,14.753-9.546,23.431
				s3.471,17.356,9.546,23.43s14.753,9.546,23.43,9.546c8.678,0,17.356-3.471,23.431-9.546s9.546-14.753,9.546-23.43
				s-3.471-17.356-9.546-23.431L68.424,434.634z M73.63,486.702c-6.075,6.075-16.488,6.075-22.563,0
				c-2.603-3.471-4.339-6.942-4.339-11.281s1.736-8.678,4.339-11.281l11.281-11.281l11.281,11.281
				c2.603,3.471,4.339,6.942,4.339,11.281S76.234,484.098,73.63,486.702z"/>
		</g>
	</g>
</g>
</svg>