<?xml version="1.0" encoding="iso-8859-1"?>
<!-- Uploaded to: SVG Repo, www.svgrepo.com, Generator: SVG Repo Mixer Tools -->
<svg fill="#000000" height="800px" width="800px" version="1.1" id="Layer_1" xmlns="http://www.w3.org/2000/svg" xmlns:xlink="http://www.w3.org/1999/xlink" 
	 viewBox="0 0 512 512" xml:space="preserve">
<g>
	<g>
		<path d="M388.892,30.975c-13.888,0-25.187,11.299-25.187,25.187s11.299,25.187,25.187,25.187s25.187-11.299,25.187-25.187
			S402.781,30.975,388.892,30.975z M388.892,60.951c-2.641,0-4.789-2.148-4.789-4.789s2.148-4.789,4.789-4.789
			c2.641,0,4.789,2.148,4.789,4.789S391.533,60.951,388.892,60.951z"/>
	</g>
</g>
<g>
	<g>
		<path d="M455.838,97.921c-13.887,0-25.186,11.299-25.186,25.187c0,13.888,11.299,25.187,25.186,25.187
			c13.888,0,25.187-11.299,25.187-25.187C481.025,109.219,469.726,97.921,455.838,97.921z M455.838,127.896
			c-2.641,0-4.787-2.148-4.787-4.789c0-2.641,2.147-4.789,4.787-4.789s4.789,2.148,4.789,4.789
			C460.627,125.748,458.479,127.896,455.838,127.896z"/>
	</g>
</g>
<g>
	<g>
		<path d="M467.587,68.275c-5.619-1.239-10.902-4.207-15.279-8.585c-4.376-4.376-7.344-9.66-8.583-15.278
			c-5.902-26.756-30.091-45.405-57.539-44.371c-29.382,1.121-53.282,25.014-54.413,54.395c-0.854,22.2,11.362,42.318,30.102,52.287
			l-14.949,14.949L310.674,85.42c-3.984-3.983-10.44-3.982-14.425,0c-3.983,3.983-3.983,10.441,0,14.425l36.253,36.253
			l-17.588,17.587l-9.807-9.807c-3.984-3.983-10.44-3.983-14.425,0L77.35,357.212c-13.11,13.11-13.11,34.443,0,47.553l7.731,7.731
			l-60.598,60.598c-3.983,3.983-3.983,10.441,0,14.425c1.992,1.992,4.602,2.987,7.212,2.987c2.61,0,5.22-0.995,7.212-2.987
			l60.596-60.596l7.731,7.731c6.556,6.555,15.166,9.832,23.776,9.832s17.221-3.277,23.777-9.832l213.335-213.334
			c1.912-1.912,2.987-4.507,2.987-7.212s-1.075-5.299-2.987-7.212l-9.808-9.807l17.587-17.587l36.253,36.253
			c1.992,1.992,4.602,2.987,7.212,2.987c2.61,0,5.22-0.997,7.212-2.987c3.983-3.983,3.983-10.441,0-14.425l-36.253-36.253
			l14.948-14.948c9.97,18.741,30.107,30.958,52.287,30.101c29.383-1.129,53.276-25.031,54.396-54.413
			C513.005,98.376,494.344,74.176,467.587,68.275z M140.363,420.226c-5.157,5.158-13.548,5.157-18.704,0l-29.886-29.887
			c-2.498-2.498-3.875-5.82-3.875-9.352c0-3.532,1.377-6.854,3.875-9.352l9.462-9.462l9.755,9.753
			c1.991,1.992,4.601,2.987,7.211,2.987c2.61,0,5.221-0.996,7.212-2.987c3.983-3.983,3.983-10.441-0.001-14.424l-9.753-9.753
			l16.045-16.045l23.742,23.742c1.992,1.992,4.602,2.987,7.212,2.987s5.22-0.995,7.212-2.987c3.983-3.983,3.983-10.441,0-14.425
			l-23.742-23.742l16.044-16.044l9.753,9.753c1.992,1.992,4.602,2.987,7.212,2.987s5.22-0.996,7.212-2.987
			c3.983-3.983,3.983-10.441,0-14.424l-9.754-9.753l16.044-16.044l23.742,23.742c1.992,1.992,4.602,2.987,7.212,2.987
			c2.61,0,5.22-0.995,7.212-2.987c3.983-3.983,3.983-10.441,0-14.425l-23.742-23.742l16.044-16.044l9.754,9.754
			c1.992,1.992,4.602,2.987,7.212,2.987s5.22-0.995,7.212-2.987c3.983-3.983,3.983-10.441,0-14.425l-9.753-9.754l60.362-60.362
			l9.802,9.802c0.002,0.002,0.003,0.004,0.005,0.005l28.977,28.977l9.807,9.807L140.363,420.226z M343.892,182.662l-14.553-14.553
			l17.587-17.588l14.552,14.552L343.892,182.662z M491.574,125.036c-0.716,18.795-16,34.083-34.795,34.806
			c-18.206,0.7-34.147-12.25-37.178-30.117c-0.638-3.761-3.323-6.852-6.957-8.01c-3.635-1.159-7.612-0.193-10.31,2.506
			l-26.429,26.43l-14.552-14.552l26.43-26.43c2.698-2.698,3.665-6.675,2.505-10.31c-1.16-3.634-4.25-6.318-8.01-6.957
			c-17.868-3.032-30.816-19.015-30.118-37.178c0.724-18.795,16.013-34.08,34.807-34.796c17.556-0.66,33.068,11.265,36.842,28.379
			c2.078,9.425,6.948,18.178,14.081,25.31c7.132,7.132,15.884,12.001,25.308,14.08h-0.001
			C480.309,91.969,492.244,107.464,491.574,125.036z"/>
	</g>
</g>
<g>
	<g>
		<path d="M18.583,493.416c-3.983-3.984-10.439-3.984-14.424,0l-1.172,1.172c-3.983,3.983-3.983,10.441,0,14.425
			C4.979,511.005,7.589,512,10.199,512s5.22-0.995,7.212-2.987l1.172-1.172C22.566,503.858,22.566,497.4,18.583,493.416z"/>
	</g>
</g>
</svg>