<?xml version="1.0" encoding="iso-8859-1"?>
<!-- Uploaded to: SVG Repo, www.svgrepo.com, Generator: SVG Repo Mixer Tools -->
<svg version="1.1" id="Layer_1" xmlns="http://www.w3.org/2000/svg" xmlns:xlink="http://www.w3.org/1999/xlink" 
	 viewBox="0 0 489.582 489.582" xml:space="preserve">
<rect x="148.65" y="211.005" transform="matrix(-0.7072 -0.707 0.707 -0.7072 179.3461 617.0818)" style="fill:#40406B;" width="137.599" height="120.799"/>
<polygon style="fill:#EAEAEA;" points="319.982,15.191 99.982,235.191 129.582,264.791 316.782,76.791 411.982,171.991 
	224.782,359.991 253.582,388.791 473.582,169.591 "/>
<rect x="160.958" y="191.348" transform="matrix(-0.7074 -0.7069 0.7069 -0.7074 61.2026 666.45)" style="fill:#62D9F9;" width="15.201" height="258.416"/>
<polyline style="fill:#3AC2F2;" points="254.382,223.991 265.582,234.391 82.382,417.591 "/>
<path style="fill:#EAEAEA;" d="M265.582,450.391c-15.2,15.2-40,15.2-55.2,0l-171.2-172c-15.2-15.2-15.2-40,0-55.2l0,0
	c15.2-15.2,40-15.2,55.2,0l172,172C280.782,410.391,280.782,435.191,265.582,450.391L265.582,450.391z"/>
<g>
	<path style="fill:#C4C4C4;" d="M93.582,223.191l172,172c15.2,15.2,15.2,40,0,55.2l0,0c-15.2,15.2-40,15.2-55.2,0"/>
	<polyline style="fill:#C4C4C4;" points="316.782,76.791 411.982,171.991 224.782,359.991 253.582,388.791 473.582,169.591 
		319.982,15.191 	"/>
</g>
<rect x="-3.945" y="405.488" transform="matrix(-0.707 -0.7072 0.7072 -0.707 -196.7943 772.6443)" style="fill:#EAEAEA;" width="131.199" height="43.2"/>
<polyline style="fill:#C4C4C4;" points="30.382,365.591 123.182,458.391 92.782,488.791 "/>
<rect x="258.443" y="108.44" transform="matrix(-0.7071 -0.7071 0.7071 -0.7071 443.7761 508.6964)" style="fill:#F15249;" width="137.599" height="107.999"/>
<rect x="205.549" y="194.535" transform="matrix(-0.7071 -0.7071 0.7071 -0.7071 316.3605 560.9111)" style="fill:#8989CC;" width="137.599" height="40.8"/>
<polyline style="fill:#C93131;" points="315.982,75.991 413.582,172.791 336.782,248.791 "/>
<g>
	
		<rect x="278.016" y="204.781" transform="matrix(-0.707 0.7072 -0.7072 -0.707 678.2648 196.5589)" style="fill:#6965A8;" width="40.8" height="67.999"/>
	
		<rect x="365.665" y="61.404" transform="matrix(-0.7071 -0.7071 0.7071 -0.7071 653.1329 420.5451)" style="fill:#6965A8;" width="95.999" height="27.2"/>
</g>
<polygon style="fill:#3AC2F2;" points="433.582,63.191 489.582,0.791 425.582,55.191 "/>
</svg>