<?xml version="1.0" encoding="iso-8859-1"?>
<!-- Uploaded to: SVG Repo, www.svgrepo.com, Generator: SVG Repo Mixer Tools -->
<svg version="1.1" id="Layer_1" xmlns="http://www.w3.org/2000/svg" xmlns:xlink="http://www.w3.org/1999/xlink" 
	 viewBox="0 0 512 512" xml:space="preserve">
<rect x="402.077" y="45.363" transform="matrix(-0.7071 -0.7071 0.7071 -0.7071 673.5989 445.0465)" style="fill:#D1D5D8;" width="53.79" height="75.306"/>
<rect x="150.722" y="304.801" transform="matrix(-0.7071 -0.7071 0.7071 -0.7071 53.7794 701.8044)" style="fill:#F15A29;" width="43.032" height="69.927"/>
<rect x="235.107" y="67.114" transform="matrix(-0.7071 -0.7071 0.7071 -0.7071 361.3907 574.3874)" style="fill:#EFEFEF;" width="129.096" height="290.466"/>
<g>
	<path style="fill:#231F20;" d="M508.849,94.437L417.564,3.15c-4.201-4.2-11.013-4.201-15.215,0c-4.201,4.201-4.201,11.013,0,15.215
		l19.017,19.017L383.33,75.418l-47.924-47.924c-4.202-4.201-11.012-4.201-15.215,0c-4.201,4.201-4.201,11.013,0,15.214l21.3,21.3
		L143.706,261.794c-2.017,2.017-3.151,4.754-3.151,7.607c0,2.853,1.134,5.59,3.151,7.607l22.821,22.821l-41.839,41.839
		c-4.201,4.201-4.201,11.013,0,15.215l7.607,7.607l-96.601,96.601c-4.201,4.201-4.201,11.013,0,15.214
		c2.101,2.101,4.854,3.151,7.607,3.151s5.507-1.051,7.607-3.151l96.6-96.601l7.607,7.607c2.101,2.101,4.854,3.151,7.607,3.151
		s5.507-1.05,7.607-3.151l41.839-41.839l22.822,22.821c2.1,2.101,4.854,3.151,7.607,3.151s5.507-1.05,7.607-3.151l197.786-197.786
		l21.3,21.3c2.101,2.101,4.854,3.151,7.607,3.151s5.506-1.051,7.607-3.151c4.201-4.201,4.201-11.013,0-15.214l-47.925-47.925
		l38.034-38.035l19.018,19.018c2.101,2.101,4.854,3.151,7.607,3.151c2.753,0,5.507-1.051,7.607-3.151
		C513.05,105.45,513.05,98.638,508.849,94.437z M196.957,330.257l-34.232,34.232l-15.214-15.214l34.232-34.232L196.957,330.257z
		 M413.759,174.311l-26.879-26.878c-4.202-4.201-11.012-4.201-15.215,0c-4.201,4.201-4.201,11.013,0,15.214l26.879,26.878
		l-19.017,19.017l-26.878-26.878c-4.202-4.201-11.012-4.201-15.215,0c-4.201,4.201-4.201,11.013,0,15.214l26.878,26.878
		l-19.017,19.018l-26.879-26.878c-4.202-4.201-11.012-4.201-15.215,0c-4.201,4.201-4.201,11.013,0,15.214l26.879,26.878
		l-19.017,19.017l-26.878-26.878c-4.202-4.201-11.012-4.201-15.215,0c-4.201,4.201-4.201,11.013,0,15.214l26.879,26.88
		l-19.017,19.017l-26.878-26.878c-4.201-4.201-11.013-4.201-15.215,0c-4.201,4.201-4.201,11.013,0,15.215l26.878,26.878
		l-19.017,19.017l-76.072-76.071L356.706,79.222l76.072,76.071L413.759,174.311z M421.367,113.454l-22.821-22.821l38.034-38.035
		l22.821,22.821L421.367,113.454z"/>
	<path style="fill:#231F20;" d="M4.227,492.558l-1.076,1.076c-4.201,4.201-4.201,11.013,0,15.215C5.253,510.95,8.006,512,10.759,512
		s5.507-1.05,7.607-3.151l1.076-1.076c4.201-4.201,4.201-11.013,0-15.215C15.24,488.357,8.428,488.357,4.227,492.558z"/>
</g>
</svg>