<?xml version="1.0" encoding="iso-8859-1"?>
<!-- Uploaded to: SVG Repo, www.svgrepo.com, Generator: SVG Repo Mixer Tools -->
<svg fill="#000000" height="800px" width="800px" version="1.1" id="Capa_1" xmlns="http://www.w3.org/2000/svg" xmlns:xlink="http://www.w3.org/1999/xlink" 
	 viewBox="0 0 489.706 489.706" xml:space="preserve">
<g>
	<g>
		<path d="M464.7,0.003H25.3c-14,0-25.3,11.3-25.3,25.3v439.1c0,14,11.3,25.3,25.3,25.3h439.1c14,0,25.3-11.3,25.3-25.3v-439.1
			C490,11.303,478.7,0.003,464.7,0.003z M380.7,63.403c-8.6,28.4-17.5,56.8-26.1,85.2c-21.4-8.2-43.2-14-65.3-17.1
			c-1.6-22.9-21-40.8-44.3-40.8c-12.1,0-22.9,4.7-30.7,12.4l-48.2-24.5c-5.1-2.3-10.9-0.4-13.2,4.3c-2.3,5.1-0.4,10.9,4.3,13.2
			l46.3,23.3c-1.6,3.9-2.3,7.8-2.7,11.7c-22.2,3.1-43.9,8.9-65.3,17.1c-8.6-28.4-17.5-56.8-26.1-85.2
			C197.2,29.903,292.8,29.903,380.7,63.403z M124,453.803c-37.7,0-68.4-60.7-68.4-135.7s30.7-135.7,68.4-135.7s68.4,60.7,68.4,135.7
			S161.8,453.803,124,453.803z M365.9,453.803c-37.7,0-68.4-60.7-68.4-135.7s30.7-135.7,68.4-135.7s68.4,60.7,68.4,135.7
			S403.7,453.803,365.9,453.803z"/>
	</g>
</g>
</svg>