<?xml version="1.0" encoding="utf-8"?>
<!-- Uploaded to: SVG Repo, www.svgrepo.com, Generator: SVG Repo Mixer Tools -->
<svg version="1.1" id="Uploaded to svgrepo.com" xmlns="http://www.w3.org/2000/svg" xmlns:xlink="http://www.w3.org/1999/xlink" 
	 width="800px" height="800px" viewBox="0 0 32 32" xml:space="preserve">
<style type="text/css">
	.flatshadows_een{fill:#FDFFFF;}
	.flatshadows_twee{fill:#E1E5E5;}
	.flatshadows_drie{fill:#C4CCCC;}
	.flatshadows_vier{fill:#A3AFAF;}
	.flatshadows_vijf{fill:#8D9999;}
	.st0{fill:#8C9898;}
</style>
<g>
	<polygon class="flatshadows_vier" points="1,1 31,1 31,2 29,4 3,4 1,2 	"/>
	<rect x="14" y="4" class="flatshadows_vijf" width="4" height="2"/>
	<rect x="3" y="6" class="flatshadows_twee" width="26" height="24"/>
	<rect x="4" y="30" class="flatshadows_drie" width="4" height="1"/>
	<circle class="flatshadows_een" cx="16" cy="18" r="9"/>
	<rect x="15" y="24" class="flatshadows_twee" width="2" height="2"/>
	<rect x="8" y="17" class="flatshadows_twee" width="2" height="2"/>
	<rect x="15" y="10" class="flatshadows_twee" width="2" height="2"/>
	<path class="flatshadows_twee" d="M14.492,19.304l6.303,6.303C23.319,24.013,25,21.206,25,18l-4-4L14.492,19.304z"/>
	<rect x="22" y="17" class="flatshadows_drie" width="2" height="2"/>
	<path class="flatshadows_vijf" d="M21,14l-1-1l-3.778,3.022C16.148,16.014,16.076,16,16,16c-1.105,0-2,0.895-2,2
		c0,1.105,0.895,2,2,2s2-0.895,2-2c0-0.076-0.014-0.148-0.022-0.222L21,14z"/>
	<path class="flatshadows_drie" d="M25,18c0,3.206-1.681,6.013-4.205,7.607L25.188,30H24v1h4v-1h1v-8L25,18z"/>
</g>
</svg>